PathFileType	4	(X/Y/Z)	C:/Users/beibeiliu/ov580/test_trc/User2\sequence.14_training_dense_left.trc
DataRate	CameraRate	NumFrames	NumMarkers	Units	OrigDataRate	OrigDataStartFrame	OrigNumFrames
120	120	20	19	mm	120	1	420
Frame#	Time	ThumbCMC			ThumbMCP			ThumbIP			ThumbTip			IndexMCP			IndexPIP			IndexTip			MiddleMCP			MiddlePIP			MiddleTip			RingMCP			RingPIP			RingTip			PinkyMCP			PinkyPIP			PinkyTip			BackHand1			BackHand2			BackHand3	
		X0	Y0	Z0	X1	Y1	Z1	X2	Y2	Z2	X3	Y3	Z3	X4	Y4	Z4	X5	Y5	Z5	X6	Y6	Z6	X7	Y7	Z7	X8	Y8	Z8	X9	Y9	Z9	X10	Y10	Z10	X11	Y11	Z11	X12	Y12	Z12	X13	Y13	Z13	X14	Y14	Z14	X15	Y15	Z15	X16	Y16	Z16	X17	Y17	Z17	X18	Y18	Z18	
0	0	-91.0795	-0.127644	91.8216	-72.5266	-15.2013	73.1509	-50.8634	-28.7489	48.4325	-39.1263	-42.4864	27.3165	-107.552	8.20035	9.5238	-99.3876	5.55214	-16.6859	-93.792	3.77766	-49.1533	-133.826	11.2339	0.0215942	-136.069	6.72847	-32.2999	-140.13	-2.09307	-63.4268	-158.779	8.71637	5.18358	-164.183	5.56707	-18.3507	-168.78	-3.12808	-46.875	-185.707	2.83806	27.0805	-194.703	1.3206	6.63037	-201.422	5.4287	-18.5641	-156.133	21.4782	59.1022	-155.322	31.1886	95.7816	-121.139	25.6551	74.3684	
1	0.00833333	-93.1406	-1.6984	89.7608	-72.4015	-16.9729	71.8826	-58.6197	-32.6151	46.9303	-45.3723	-48.0395	25.851	-107.973	10.3776	7.97863	-100.696	8.53541	-20.7851	-95.9679	6.24946	-49.9139	-133.353	12.9206	-2.39379	-135.342	8.23149	-29.9328	-140.643	-2.86226	-63.4008	-163.046	11.0549	7.20741	-163.03	5.53068	-19.301	-167.826	-5.75003	-52.2076	-182.672	3.22598	29.8531	-196.718	3.92031	1.46025	-203.526	7.88223	-16.9697	-158.888	21.9519	63.6549	-155.02	31.7251	93.9223	-120.941	25.123	73.7694	
2	0.0166667	-93.4978	-2.46714	92.3384	-75.4538	-19.3252	74.6103	-58.4088	-37.9266	43.8717	-53.1994	-51.8748	28.5728	-101.849	12.3181	6.27052	-100.459	10.9392	-17.4837	-91.7535	9.55777	-44.0155	-135.265	15.8823	1.66259	-135.363	8.26262	-30.5844	-137.327	-5.45404	-60.5403	-156.959	12.4442	9.19065	-162.406	3.91289	-23.4182	-166.419	-10.1894	-49.8977	-183.812	6.3934	28.9622	-195.396	4.56669	3.57377	-201.34	6.80832	-18.2489	-159.28	24.3736	64.2715	-154.619	30.7059	95.3864	-122.376	26.6143	78.3096	
3	0.025	-90.3955	-2.28613	88.1356	-78.497	-21.6334	70.8077	-65.2161	-40.6731	44.3759	-60.041	-56.0256	27.3622	-104.096	17.9816	8.4469	-94.8939	17.9058	-18.3484	-96.2566	16.4731	-42.1723	-132.856	18.9085	4.22567	-135.863	7.71625	-31.8633	-140.257	-13.3137	-57.284	-155.917	14.3303	6.94593	-161.454	3.00588	-21.7433	-160.636	-14.6268	-42.908	-178.467	7.66085	29.7292	-189.454	7.83499	3.05916	-199.391	11.096	-17.7168	-157.673	25.4448	63.0035	-158.839	32.5271	96.1934	-121.041	29.3476	77.3399	
4	0.0333333	-95.7398	-0.964502	91.5558	-80.7173	-23.0242	67.1729	-69.2055	-43.1014	42.5582	-68.3854	-58.527	20.5799	-101.517	23.9404	13.7598	-96.63	24.6864	-11.9804	-90.7179	25.0053	-39.2997	-130.632	22.1087	-0.923369	-132.946	3.42677	-31.8791	-136.648	-22.575	-48.5793	-159.927	15.2475	8.03273	-158.023	-0.375354	-22.3129	-157.611	-28.9493	-37.4158	-183.528	10.6408	28.3012	-186.6	9.74684	3.44938	-197.342	12.6021	-19.6126	-158.851	29.5442	64.7461	-154.071	34.2968	96.1731	-122.522	31.316	78.9665	
5	0.0416667	-96.1429	0.695972	86.7222	-84.5709	-21.6397	65.455	-78.3679	-41.1915	35.0444	-79.7961	-56.7619	13.7644	-101.223	28.8139	15.8103	-99.0807	30.8368	-15.6707	-91.6055	31.7023	-38.6916	-134.436	21.5568	0.00405054	-132.215	0.294059	-27.8802	-135.853	-36.1579	-33.2853	-159.57	14.9644	7.06241	-157.862	-6.84352	-19.7345	-152.793	-36.9924	-23.5293	-180.256	13.4462	28.0687	-185.037	11.647	3.91005	-194.291	9.52	-22.0234	-156.392	30.7094	68.4835	-157.882	34.1037	98.6632	-120.363	33.9534	81.1785	
6	0.05	-94.2658	3.11744	85.7068	-84.5974	-20.6991	61.1549	-84.5038	-39.3756	35.2937	-91.4807	-51.1737	10.9292	-105.224	34.3352	10.0685	-97.0872	35.4923	-11.3268	-95.0075	38.0367	-39.446	-135.064	20.7758	-1.25762	-130.446	-3.10414	-23.7787	-129.085	-44.1698	-16.444	-154.019	14.7709	7.77672	-153.651	-10.1701	-15.6205	-141.481	-45.4371	-7.74385	-181.62	14.0246	26.916	-186.363	12.0523	-3.66896	-189.864	7.24176	-27.168	-156.059	29.9397	68.1935	-160.609	34.4618	99.9241	-124.861	37.9977	82.4538	
7	0.0583333	-94.1664	4.60886	88.846	-85.9047	-19.7666	61.1867	-85.8149	-37.6515	26.5337	-97.1738	-49.0198	4.9321	-104.613	38.3735	11.1574	-96.4185	40.7733	-16.2881	-96.6625	43.751	-39.843	-132.715	19.9424	-1.64906	-129.715	-8.34222	-20.3262	-121.674	-44.9972	0.497787	-152.66	13.1892	5.13338	-152.566	-16.0167	-12.412	-140.457	-43.7306	4.40032	-180.433	16.2155	23.1664	-182.684	12.5336	-2.61312	-183.826	2.61579	-32.3518	-161.622	30.6152	67.2492	-160.743	34.309	97.3725	-122.358	40.4619	81.2037	
8	0.0666667	-94.938	4.09937	85.0724	-89.0424	-18.9026	56.6187	-92.4992	-34.7133	26.8268	-107.536	-43.2121	1.82312	-104.283	40.5797	13.739	-97.4494	45.0816	-16.4967	-90.8301	49.3522	-42.9925	-131.559	22.1105	1.34648	-130.524	-13.6756	-16.5212	-123.295	-40.7753	9.60817	-153.307	12.4212	3.19352	-149.864	-16.8871	-10.0108	-134.793	-40.6072	15.5644	-178.788	16.4802	26.469	-179.952	14.0853	-3.12069	-179.929	2.68756	-31.7209	-158.281	31.7452	65.548	-160.767	33.5629	100.413	-123.494	38.6887	82.3018	
9	0.075	-96.4251	5.63211	86.8253	-85.579	-19.2544	55.5973	-88.7752	-35.1805	25.8669	-109.487	-41.8408	5.82205	-102.524	43.0196	13.1629	-100.119	46.8713	-11.5875	-94.9015	52.6893	-39.7938	-128.638	22.1768	-0.445644	-124.754	-11.3279	-15.0122	-121.274	-37.0034	14.3054	-148.861	13.7811	2.17772	-149.222	-15.7758	-9.11814	-135.313	-36.6347	19.5399	-172.612	18.2014	26.3498	-177.808	14.2319	-6.78575	-173.329	2.63884	-30.8874	-160.572	33.4485	66.2672	-160.017	35.8812	96.648	-122.146	40.6168	83.546	
10	0.0833333	-93.5887	7.06325	84.846	-86.0886	-17.2653	56.8072	-91.3152	-33.7478	24.7158	-110.674	-40.1646	2.19582	-103.731	43.7973	12.0235	-96.1504	48.3138	-11.8613	-94.1082	54.7794	-41.4281	-128.258	21.885	-1.68407	-123.995	-9.85058	-13.4485	-123.513	-35.0817	17.8278	-153.63	13.0019	4.22484	-146.517	-15.6963	-7.78184	-132.797	-35.0253	23.6047	-171.312	18.9201	25.2405	-174.996	15.6492	-7.16582	-170.288	2.53107	-30.7841	-159.605	34.2506	66.4247	-158.661	35.5284	95.4839	-123.648	42.2251	82.5447	
11	0.0916667	-96.0538	6.52443	88.554	-82.0597	-18.1048	58.3539	-88.0781	-33.826	25.8767	-110.159	-38.6698	6.97167	-100.509	45.0163	12.9163	-93.8918	50.0371	-13.0084	-92.1726	55.0511	-36.5565	-126.912	23.9644	1.52591	-124.086	-11.2204	-12.9016	-119.296	-34.149	22.0502	-150.767	14.3489	6.20369	-141.689	-13.8864	-7.0443	-133.435	-34.8387	21.8563	-168.782	21.0562	20.2027	-171.339	15.9229	-4.85366	-170.109	2.12389	-33.0275	-158.455	36.3672	64.7589	-160.537	36.477	97.6387	-119.646	41.0209	81.424	
12	0.1	-95.0574	7.96125	85.5435	-86.3304	-16.8347	59.9835	-87.3056	-35.1464	26.9938	-108.05	-39.7968	4.97835	-97.2308	45.6852	13.5292	-89.3586	50.5452	-9.97182	-87.6344	55.6082	-33.5176	-122.398	23.7495	0.722473	-120.663	-11.6684	-11.4014	-118.94	-33.5576	19.4288	-149.589	13.929	4.84559	-136.844	-16.0878	-5.50294	-130.275	-33.9504	24.3752	-170.573	18.8606	24.329	-171.083	15.6845	-4.10004	-166.291	4.51191	-33.8185	-152.315	34.8569	63.893	-156.78	35.683	100.311	-120.628	40.2349	84.5523	
13	0.108333	-92.0163	5.84859	90.6755	-81.2464	-18.7147	59.2553	-86.647	-34.7935	26.6867	-109.64	-39.7568	6.74486	-99.7972	44.7322	17.6153	-90.6805	50.6074	-6.19119	-85.1767	57.431	-35.8138	-121.937	23.4717	-0.0449294	-116.609	-11.029	-10.2865	-114.447	-32.6271	20.2045	-144.27	13.5289	4.09098	-137.677	-13.7673	-5.39915	-127.663	-32.8242	24.2436	-165.521	21.2741	21.2335	-169.066	15.3196	-8.45428	-163.793	7.66582	-32.4046	-151.824	34.3315	64.7403	-155.583	37.4652	98.722	-119.671	42.5172	87.8278	
14	0.116667	-89.0113	6.33955	90.7598	-80.1671	-19.3183	63.3284	-85.4219	-36.7287	29.9142	-109.356	-39.6838	10.5622	-97.9022	45.3402	15.7295	-90.4898	50.0414	-7.37318	-84.0275	56.0171	-34.4912	-119.579	24.0671	4.33677	-114.489	-10.1101	-9.27303	-113.833	-32.4392	27.5597	-142.615	13.7692	5.91215	-135.626	-16.0868	-3.6241	-125.824	-31.6232	25.1622	-168.653	20.4981	22.198	-169.782	18.2228	-2.24109	-167.466	13.1673	-33.5201	-154.918	34.6552	68.3164	-153.358	34.6496	98.9368	-119.473	41.6173	85.8805	
15	0.125	-88.3572	4.96507	91.0857	-81.451	-19.4851	61.2098	-87.1873	-35.6498	26.1534	-108.789	-41.3102	10.6037	-94.1949	45.193	18.8813	-84.9648	50.674	-5.71298	-83.8433	58.6756	-35.3263	-121.239	24.5082	5.74606	-112.006	-12.5457	-7.23144	-111.745	-32.4883	25.2469	-142.757	14.5934	8.096	-133.519	-14.1411	-2.52124	-126.437	-31.6295	28.4423	-168.165	20.5416	24.701	-167.306	20.2601	-1.24532	-166.918	20.7026	-29.0579	-150.404	34.069	66.687	-152.456	34.8218	100.844	-115.72	43.2842	84.9246	
16	0.133333	-86.5923	5.12879	93.4939	-80.0168	-19.7295	58.8607	-87.0626	-34.8936	29.6101	-111.746	-36.1582	9.09624	-93.3611	46.1077	22.3974	-85.8853	52.4048	-7.02303	-81.0056	60.2546	-30.2857	-120.38	25.4158	8.43673	-114.606	-9.93069	-6.81537	-112.285	-30.9085	26.4088	-136.956	14.7895	8.49293	-132.606	-16.4137	-0.516032	-124.285	-31.2772	34.1875	-164.876	21.8842	24.3804	-167.069	22.5698	1.25115	-168.719	26.0877	-23.7548	-149.834	35.0616	72.0349	-150.218	37.0173	100.54	-115.983	43.2349	85.8621	
17	0.141667	-84.1727	5.64061	92.9324	-79.4022	-19.4597	64.9977	-85.7549	-34.6337	32.0107	-109.06	-36.4757	9.76115	-88.0851	48.173	25.7372	-83.3127	55.2411	-4.35717	-77.8733	62.7925	-27.1633	-115.57	26.0217	5.64334	-109.634	-6.57054	-5.33876	-110.437	-28.6462	31.9191	-137.693	16.6456	8.40779	-131.298	-12.3987	-1.13219	-118.826	-27.2571	32.512	-160.868	24.114	27.8823	-166.396	26.2169	0.369006	-167.818	31.1599	-18.9296	-145.841	37.9518	70.4939	-151.004	37.2479	101.042	-115.843	43.2408	89.1596	
18	0.15	-82.5448	8.09025	93.4191	-77.9156	-16.2905	67.414	-83.0957	-32.8564	29.7874	-106.754	-33.1103	14.9489	-88.4762	49.4408	27.2207	-80.8622	58.2246	0.113923	-79.2	66.1453	-26.2586	-112.861	29.9566	9.40347	-109.281	-8.22643	-3.59077	-108.417	-27.2102	27.434	-135.058	19.3186	11.0151	-128.446	-13.2025	0.403807	-117.933	-28.5936	34.8245	-159.706	23.9771	27.656	-161.122	27.1886	0.519545	-163.445	33.9166	-17.5167	-143.995	38.1904	72.8926	-150.989	39.0016	104.661	-115.617	42.384	91.0216	
19	0.158333	-84.7614	13.0929	95.6886	-71.4845	-11.8375	67.6431	-76.5704	-27.7883	35.2117	-98.3004	-33.214	13.8319	-92.7083	55.2616	22.7242	-85.7005	60.6219	1.69374	-82.7163	68.4126	-26.9646	-112.707	29.8014	6.40176	-101.04	-2.95011	-3.59188	-101.583	-24.5305	28.6367	-134.385	15.9245	7.681	-122.882	-9.83371	0.0546897	-111.559	-28.2262	33.183	-160.441	20.6154	28.3782	-162.414	21.5807	3.43938	-166	28.0491	-19.0377	-146.599	39.9339	69.7013	-150.89	35.943	105.521	-112.831	47.0652	92.6346	
